<?xml version="1.0" encoding="UTF-8" standalone="no"?>
<!-- Created with Inkscape (http://www.inkscape.org/) -->

<svg
   width="31.910118mm"
   height="29.257189mm"
   viewBox="0 0 31.910118 29.257189"
   version="1.1"
   id="svg1"
   inkscape:version="1.3.2 (091e20e, 2023-11-25)"
   sodipodi:docname="sensomotion_without_brain.svg"
   xml:space="preserve"
   xmlns:inkscape="http://www.inkscape.org/namespaces/inkscape"
   xmlns:sodipodi="http://sodipodi.sourceforge.net/DTD/sodipodi-0.dtd"
   xmlns:xlink="http://www.w3.org/1999/xlink"
   xmlns="http://www.w3.org/2000/svg"
   xmlns:svg="http://www.w3.org/2000/svg"><sodipodi:namedview
     id="namedview1"
     pagecolor="#ffffff"
     bordercolor="#000000"
     borderopacity="0.25"
     inkscape:showpageshadow="2"
     inkscape:pageopacity="0.0"
     inkscape:pagecheckerboard="0"
     inkscape:deskcolor="#d1d1d1"
     inkscape:document-units="mm"
     inkscape:zoom="1.0409104"
     inkscape:cx="103.75533"
     inkscape:cy="67.248825"
     inkscape:window-width="1088"
     inkscape:window-height="449"
     inkscape:window-x="193"
     inkscape:window-y="0"
     inkscape:window-maximized="0"
     inkscape:current-layer="layer1" /><defs
     id="defs1"><linearGradient
       id="linearGradient62"
       inkscape:collect="always"><stop
         style="stop-color:#93cf62;stop-opacity:0.25;"
         offset="0"
         id="stop62" /><stop
         style="stop-color:#93cf62;stop-opacity:0.25;"
         offset="1"
         id="stop63" /></linearGradient><linearGradient
       id="linearGradient60"
       inkscape:collect="always"><stop
         style="stop-color:#93cf62;stop-opacity:1;"
         offset="0"
         id="stop60" /><stop
         style="stop-color:#93cf62;stop-opacity:0.25;"
         offset="1"
         id="stop61" /></linearGradient><linearGradient
       id="linearGradient58"
       inkscape:collect="always"><stop
         style="stop-color:#93cf62;stop-opacity:0.25;"
         offset="0.00139276"
         id="stop58" /><stop
         style="stop-color:#93cf62;stop-opacity:1;"
         offset="1"
         id="stop59" /></linearGradient><linearGradient
       id="linearGradient56"
       inkscape:collect="always"><stop
         style="stop-color:#93cf62;stop-opacity:0.25;"
         offset="0"
         id="stop56" /><stop
         style="stop-color:#93cf62;stop-opacity:1;"
         offset="1"
         id="stop57" /></linearGradient><linearGradient
       id="linearGradient54"
       inkscape:collect="always"><stop
         style="stop-color:#93cf62;stop-opacity:0.25;"
         offset="0"
         id="stop54" /><stop
         style="stop-color:#93cf62;stop-opacity:1;"
         offset="1"
         id="stop55" /></linearGradient><linearGradient
       id="linearGradient52"
       inkscape:collect="always"><stop
         style="stop-color:#93cf62;stop-opacity:0.25;"
         offset="0"
         id="stop52" /><stop
         style="stop-color:#93cf62;stop-opacity:1;"
         offset="1"
         id="stop53" /></linearGradient><linearGradient
       id="linearGradient50"
       inkscape:collect="always"><stop
         style="stop-color:#93cf62;stop-opacity:0.25;"
         offset="0"
         id="stop50" /><stop
         style="stop-color:#93cf62;stop-opacity:1;"
         offset="1"
         id="stop51" /></linearGradient><linearGradient
       id="linearGradient48"
       inkscape:collect="always"><stop
         style="stop-color:#93cf62;stop-opacity:0.25;"
         offset="0.15598886"
         id="stop48" /><stop
         style="stop-color:#93cf62;stop-opacity:1;"
         offset="1"
         id="stop49" /></linearGradient><linearGradient
       id="linearGradient46"
       inkscape:collect="always"><stop
         style="stop-color:#93cf62;stop-opacity:0.25;"
         offset="0.09470752"
         id="stop46" /><stop
         style="stop-color:#93cf62;stop-opacity:1;"
         offset="1"
         id="stop47" /></linearGradient><linearGradient
       id="linearGradient44"
       inkscape:collect="always"><stop
         style="stop-color:#93cf62;stop-opacity:0.25;"
         offset="0"
         id="stop44" /><stop
         style="stop-color:#93cf62;stop-opacity:1;"
         offset="1"
         id="stop45" /></linearGradient><linearGradient
       id="linearGradient42"
       inkscape:collect="always"><stop
         style="stop-color:#93cf62;stop-opacity:0.25;"
         offset="0.0988858"
         id="stop42" /><stop
         style="stop-color:#93cf62;stop-opacity:1;"
         offset="1"
         id="stop43" /></linearGradient><linearGradient
       id="linearGradient39"
       inkscape:collect="always"><stop
         style="stop-color:#93cf62;stop-opacity:0.25;"
         offset="0"
         id="stop40" /><stop
         style="stop-color:#93cf62;stop-opacity:1;"
         offset="1"
         id="stop41" /></linearGradient><linearGradient
       inkscape:collect="always"
       xlink:href="#linearGradient39"
       id="linearGradient41"
       x1="123.25684"
       y1="175.74773"
       x2="128.67143"
       y2="175.74773"
       gradientUnits="userSpaceOnUse"
       gradientTransform="matrix(0.98937341,0,0,0.98937341,-94.990464,-151.5521)" /><linearGradient
       inkscape:collect="always"
       xlink:href="#linearGradient42"
       id="linearGradient43"
       x1="123.22353"
       y1="169.94797"
       x2="125.82842"
       y2="169.94797"
       gradientUnits="userSpaceOnUse"
       gradientTransform="matrix(0.98937341,0,0,0.98937341,-94.990464,-151.5521)" /><linearGradient
       inkscape:collect="always"
       xlink:href="#linearGradient44"
       id="linearGradient45"
       x1="104.63871"
       y1="162.70557"
       x2="119.91307"
       y2="162.70557"
       gradientUnits="userSpaceOnUse"
       gradientTransform="matrix(0.98937341,0,0,0.98937341,-94.990464,-151.5521)" /><linearGradient
       inkscape:collect="always"
       xlink:href="#linearGradient46"
       id="linearGradient47"
       x1="118.40793"
       y1="162.74889"
       x2="128.0322"
       y2="162.74889"
       gradientUnits="userSpaceOnUse"
       gradientTransform="matrix(0.98937341,0,0,0.98937341,-94.990464,-151.5521)" /><linearGradient
       inkscape:collect="always"
       xlink:href="#linearGradient48"
       id="linearGradient49"
       x1="114.35545"
       y1="172.42258"
       x2="132.69221"
       y2="172.42258"
       gradientUnits="userSpaceOnUse"
       gradientTransform="matrix(0.98937341,0,0,0.98937341,-94.990464,-151.5521)" /><linearGradient
       inkscape:collect="always"
       xlink:href="#linearGradient50"
       id="linearGradient51"
       x1="114.11705"
       y1="182.92578"
       x2="126.04919"
       y2="182.92578"
       gradientUnits="userSpaceOnUse"
       gradientTransform="matrix(0.98937341,0,0,0.98937341,-94.990464,-151.5521)" /><linearGradient
       inkscape:collect="always"
       xlink:href="#linearGradient52"
       id="linearGradient53"
       x1="118.41251"
       y1="183.19325"
       x2="128.18161"
       y2="183.19325"
       gradientUnits="userSpaceOnUse"
       gradientTransform="matrix(0.98937341,0,0,0.98937341,-94.990464,-151.5521)" /><linearGradient
       inkscape:collect="always"
       xlink:href="#linearGradient54"
       id="linearGradient55"
       x1="105.04676"
       y1="178.14397"
       x2="114.91341"
       y2="178.14397"
       gradientUnits="userSpaceOnUse"
       gradientTransform="matrix(0.98937341,0,0,0.98937341,-94.990464,-151.5521)" /><linearGradient
       inkscape:collect="always"
       xlink:href="#linearGradient56"
       id="linearGradient57"
       x1="104.91968"
       y1="183.18744"
       x2="119.71035"
       y2="183.18744"
       gradientUnits="userSpaceOnUse"
       gradientTransform="matrix(0.98937341,0,0,0.98937341,-94.990464,-151.5521)" /><linearGradient
       inkscape:collect="always"
       xlink:href="#linearGradient58"
       id="linearGradient59"
       x1="106.93511"
       y1="182.19048"
       x2="108.69835"
       y2="182.19048"
       gradientUnits="userSpaceOnUse"
       gradientTransform="matrix(0.98937341,0,0,0.98937341,-94.990464,-151.5521)" /><linearGradient
       inkscape:collect="always"
       xlink:href="#linearGradient60"
       id="linearGradient61"
       x1="100.43935"
       y1="173.01666"
       x2="108.67583"
       y2="173.01666"
       gradientUnits="userSpaceOnUse"
       gradientTransform="matrix(0.98937341,0,0,0.98937341,-94.990464,-151.5521)" /><linearGradient
       inkscape:collect="always"
       xlink:href="#linearGradient62"
       id="linearGradient63"
       x1="107.44184"
       y1="167.16051"
       x2="115.02055"
       y2="167.16051"
       gradientUnits="userSpaceOnUse"
       gradientTransform="matrix(0.98937341,0,0,0.98937341,-94.990464,-151.5521)" /></defs><g
     inkscape:label="Calque 1"
     inkscape:groupmode="layer"
     id="layer1"
     transform="translate(-4.3815576,-6.4337185)"><g
       id="g20"><path
         d="m 33.257796,26.258345 v -0.361221 l 0.436037,-0.454696 c 1.829222,-1.907551 2.416129,-3.967051 1.735776,-6.090978 -0.321655,-1.004135 -0.892731,-1.87605 -1.864464,-2.846685 -0.948097,-0.946998 -1.816361,-1.550744 -3.253535,-2.262341 -2.546924,-1.261065 -5.029994,-1.890138 -8.414294,-2.131723 -0.626996,-0.04472 -2.656042,-0.04373 -3.276152,0.002 l -0.471387,0.03453 0.329966,-0.30356 0.329976,-0.303569 0.400676,-0.03423 c 0.645309,-0.05521 2.948125,0.01266 3.913773,0.115322 1.535468,0.163197 2.712318,0.392148 4.148156,0.807002 4.89357,1.413894 8.148905,4.092276 8.894408,7.318039 0.100936,0.436759 0.122949,0.65078 0.124849,1.213773 0.003,0.803322 -0.06372,1.262767 -0.276391,1.912696 -0.27466,0.839206 -0.756149,1.670399 -1.445168,2.494794 -0.371401,0.444367 -1.042859,1.108336 -1.212824,1.199299 -0.09706,0.05194 -0.0994,0.04482 -0.0994,-0.308032 z"
         style="fill:url(#linearGradient49);stroke-width:0.989373"
         id="path1-6-9" /><path
         d="m 19.145126,30.618395 c -0.559926,-0.01662 -0.538723,-0.0079 -0.952311,-0.381651 l -0.278905,-0.251895 0.636375,0.03621 c 1.784751,0.101708 4.188552,-0.01692 5.850779,-0.288689 1.795089,-0.293507 3.73531,-0.835704 4.965338,-1.387576 0.177227,-0.07955 0.333152,-0.133665 0.346499,-0.120318 0.01336,0.01336 0.0049,0.167036 -0.0186,0.341532 l -0.04284,0.317272 -0.375111,0.156647 c -0.835408,0.348853 -2.272225,0.783456 -3.379116,1.022092 -2.203513,0.475058 -4.13286,0.634021 -6.752147,0.556325 z"
         style="fill:url(#linearGradient51);stroke-width:0.989373"
         id="path1-4-0" /><path
         d="m 10.834617,29.698129 c -0.07598,-0.09152 -0.01019,-0.133041 0.501553,-0.317084 0.239824,-0.08627 0.435948,-0.168263 0.435839,-0.182253 -1.09e-4,-0.01405 -0.159339,-0.08875 -0.353849,-0.166066 -0.375913,-0.149465 -0.376408,-0.150078 -0.424758,-0.531116 -0.02434,-0.191869 -0.01722,-0.246937 0.03196,-0.245087 0.03483,9.89e-4 0.264866,0.084 0.51117,0.183855 0.246295,0.0998 0.454479,0.175139 0.462631,0.167412 0.0079,-0.0079 -0.05016,-0.198201 -0.129628,-0.423294 -0.166897,-0.472841 -0.17496,-0.543433 -0.06193,-0.542443 0.148346,9.89e-4 0.198874,0.07024 0.381413,0.520865 0.342303,0.844885 0.412579,1.081722 0.335437,1.130488 -0.140976,0.08914 -1.347131,0.469171 -1.488928,0.469171 -0.08103,0 -0.171448,-0.02899 -0.200862,-0.06441 z"
         style="fill:url(#linearGradient59);stroke-width:0.989373"
         id="path1-44-5" /><path
         d="M 6.7475057,26.089271 C 4.6670909,24.033204 3.9456942,21.719179 4.6348274,19.312488 c 0.2298117,-0.80255 0.7994929,-1.822149 1.461453,-2.615646 0.7836431,-0.93936 2.0084181,-1.923381 3.2995009,-2.650947 0.9188407,-0.517778 3.1347307,-1.458653 3.1347307,-1.331024 0,0.01712 -0.125918,0.205612 -0.279815,0.418792 -0.268466,0.371886 -0.293784,0.393009 -0.624581,0.521054 -2.1355923,0.826582 -4.115655,2.195053 -5.2756359,3.646039 -1.2385768,1.549289 -1.676147,3.389009 -1.218542,5.123213 0.2849495,1.079881 0.8475764,2.029482 1.7752624,2.996327 l 0.4339788,0.452302 -0.028296,0.338138 c -0.015632,0.185973 -0.044522,0.338138 -0.064309,0.338138 -0.019788,0 -0.245236,-0.206818 -0.5010088,-0.459603 z"
         style="fill:url(#linearGradient61);stroke-width:0.989373"
         id="path1-86-6" /></g><g
       id="g4"><path
         d="M 31.314894,12.354631 C 31.0499,12.220927 31.014332,12.185794 30.971878,12.015701 30.741968,11.094584 30.329379,10.122278 29.890137,9.466432 29.546221,8.9529076 28.829707,8.2459904 28.311938,7.9093858 27.4124,7.3245672 26.528731,7.0457717 25.450828,7.0066914 24.640799,6.977307 24.073007,7.0362737 23.256586,7.2343561 l -0.576043,0.1397886 -0.26067,-0.173081 c -0.14338,-0.095178 -0.26068,-0.1879216 -0.26068,-0.2060667 0,-0.047193 0.883055,-0.3091792 1.437738,-0.4264595 0.666293,-0.1408769 1.951222,-0.179225 2.593058,-0.077369 1.400785,0.2222627 2.454428,0.753398 3.419374,1.7236765 0.769158,0.773413 1.274055,1.6015086 1.670023,2.739031 0.159516,0.458258 0.401665,1.36021 0.401804,1.496655 7.9e-5,0.08162 -0.03008,0.07371 -0.366296,-0.09587 z"
         style="fill:url(#linearGradient47);stroke-width:0.989373"
         id="path1-75-9" /><path
         d="m 27.226684,27.101884 c 1.602221,-2.411756 2.801847,-5.078404 3.398251,-7.554014 0.207194,-0.860023 0.369768,-1.769494 0.309782,-1.733006 -0.02849,0.01731 -0.210825,0.143924 -0.405098,0.281259 -0.417011,0.294813 -0.483369,0.308645 -0.462908,0.09646 0.01296,-0.134337 0.08152,-0.203514 0.556868,-0.561786 0.298148,-0.224717 0.599185,-0.442616 0.668965,-0.484209 l 0.126877,-0.07559 0.453559,0.635148 c 0.404495,0.566456 0.451956,0.654125 0.438797,0.810545 -0.0079,0.09646 -0.03601,0.18153 -0.06193,0.189029 -0.02592,0.0079 -0.185023,-0.184815 -0.353543,-0.427389 -0.16852,-0.242565 -0.311227,-0.43669 -0.317123,-0.431387 -0.0059,0.0049 -0.06431,0.299602 -0.129727,0.654006 -0.226547,1.226635 -0.633793,2.660771 -1.086926,3.827628 -0.548004,1.411193 -1.521072,3.316459 -2.340066,4.581868 l -0.280349,0.433157 -0.362506,0.120723 c -0.199379,0.06639 -0.387577,0.120724 -0.418218,0.120724 -0.03067,0 0.08875,-0.217425 0.265271,-0.483171 z"
         style="fill:url(#linearGradient41);stroke-width:0.989373"
         id="path1-73-9" /><path
         d="M 14.873596,35.62873 C 13.928635,35.513517 13.340235,35.346788 12.631448,34.993424 11.447237,34.403035 10.450275,33.387166 9.8299876,32.138854 8.8062434,30.07881 8.5568619,27.424945 9.0796567,24.155194 c 0.031066,-0.194442 0.070839,-0.381156 0.088252,-0.414913 0.019194,-0.0371 0.1081187,0.106248 0.2246867,0.36209 l 0.1929377,0.423462 -0.064705,0.462839 c -0.1710923,1.222945 -0.1977757,2.718333 -0.067574,3.786134 0.2443258,2.004095 0.9867709,3.68972 2.0928019,4.751555 0.695895,0.668094 1.447186,1.084066 2.421165,1.340551 0.528167,0.139086 0.59586,0.145735 1.519143,0.149089 1.050161,0.004 1.357727,-0.03661 2.313848,-0.30442 1.320675,-0.369877 2.67392,-1.05021 4.166528,-2.094702 0.449977,-0.314888 0.607703,-0.400033 0.777796,-0.4199 0.11734,-0.01375 0.327265,-0.03858 0.46649,-0.05531 0.165482,-0.01989 0.247105,-0.01365 0.235698,0.01801 -0.03126,0.08677 -0.995448,0.859053 -1.478757,1.184458 -1.732878,1.166738 -3.418463,1.897084 -5.020289,2.175236 -0.517363,0.08984 -1.71585,0.153017 -2.074112,0.109326 z"
         style="fill:url(#linearGradient57);stroke-width:0.989373"
         id="path1-50-9" /><path
         d="m 11.473574,18.44736 c -0.01425,-0.06134 -0.05689,-0.249065 -0.09488,-0.41706 l -0.06906,-0.30543 0.344668,-0.660911 c 1.566792,-3.004321 3.690452,-5.640932 6.102485,-7.5764731 0.25046,-0.2009813 0.479253,-0.3658703 0.508439,-0.3664145 0.02919,-5.441e-4 0.175703,0.053228 0.325603,0.1195361 0.313206,0.1385123 0.336614,0.089241 -0.260809,0.5486076 -0.966895,0.7434049 -2.092594,1.8185869 -3.013414,2.8781859 -1.192511,1.372241 -2.463559,3.277765 -3.379947,5.067126 -0.22245,0.434374 -0.411826,0.797573 -0.42083,0.807111 -0.0089,0.0099 -0.028,-0.03285 -0.04225,-0.09429 z"
         style="fill:url(#linearGradient63);fill-opacity:1;stroke-width:0.989373"
         id="path1-756-2" /></g><g
       id="g11"><path
         d="M 8.8712057,11.659111 C 8.580221,11.075707 8.5155061,10.90785 8.5415563,10.804045 c 0.017809,-0.07104 0.058175,-0.121337 0.089637,-0.111789 0.031462,0.0099 0.1635929,0.222361 0.293646,0.47292 l 0.2364602,0.455547 0.1770682,-0.55206 C 10.028832,8.9157567 11.502207,7.3538329 13.407908,6.7545001 c 0.796802,-0.2505885 1.104438,-0.2919344 2.16277,-0.2906284 0.747462,9.3e-4 1.093822,0.021469 1.414161,0.083998 2.134207,0.4163877 4.262904,1.4980103 6.257698,3.1796087 0.416388,0.3510196 0.500564,0.4666076 0.306399,0.4207506 -0.05837,-0.01375 -0.270128,-0.03977 -0.470655,-0.05768 C 22.721365,10.058592 22.70597,10.051765 22.34658,9.7687252 21.12693,8.8080931 19.656049,7.992048 18.304733,7.5263004 16.522752,6.9121172 14.982259,6.842683 13.574756,7.3131103 c -1.437688,0.4805188 -2.50075,1.4144082 -3.225783,2.8338227 -0.245137,0.479896 -0.5999656,1.400705 -0.5999656,1.556937 0,0.05046 0.1266497,0.003 0.4489776,-0.169549 0.246938,-0.131942 0.469685,-0.239903 0.494974,-0.239903 0.06708,0 0.0563,0.263075 -0.01296,0.318064 -0.03245,0.02572 -0.371183,0.210074 -0.7528242,0.40967 l -0.6938872,0.362902 z"
         style="fill:url(#linearGradient45);stroke-width:0.989373"
         id="path1-9-0" /><path
         d="m 28.977361,18.116207 c -0.561578,-1.123265 -1.147426,-2.142102 -1.755821,-3.053533 -0.178889,-0.267981 -0.312385,-0.500108 -0.296664,-0.515829 0.06174,-0.06174 0.756643,0.181708 0.85376,0.299028 0.174446,0.210717 0.940934,1.489709 1.335763,2.22889 l 0.38643,0.723479 -0.07786,0.384283 c -0.04284,0.21136 -0.09458,0.414854 -0.115134,0.452213 -0.02592,0.04719 -0.126748,-0.110978 -0.33051,-0.518531 z"
         style="fill:url(#linearGradient43);stroke-width:0.989373"
         id="path1-5-8" /><path
         d="m 23.955767,35.635052 c -0.667363,-0.107901 -1.735154,-0.400686 -1.791033,-0.491105 -0.01276,-0.02058 0.09706,-0.117241 0.244019,-0.214793 l 0.26714,-0.177375 0.54379,0.128064 c 1.512801,0.356284 2.741484,0.332826 3.907965,-0.0746 2.250805,-0.786166 3.653885,-2.870855 4.039889,-6.00241 0.0743,-0.602588 0.101787,-2.234183 0.0465,-2.759056 -0.01504,-0.142598 -0.05936,-0.535023 -0.09854,-0.872073 l -0.07133,-0.612798 0.189069,-0.42363 c 0.103983,-0.232988 0.207353,-0.429715 0.229713,-0.437174 0.03957,-0.01316 0.187882,0.831241 0.304262,1.732867 0.09409,0.728664 0.07747,2.961205 -0.02751,3.700405 -0.499148,3.51558 -2.349287,5.818466 -5.192558,6.46326 -0.47107,0.106823 -2.030243,0.131151 -2.591416,0.04046 z"
         style="fill:url(#linearGradient53);fill-opacity:1;stroke-width:0.989373"
         id="path1-95-6" /><path
         d="M 17.662234,32.471164 C 15.43646,30.694359 13.422046,28.271818 11.874993,25.511417 10.461841,22.98993 9.5730375,20.593361 9.1160657,18.07217 9.0526469,17.722159 8.9870811,17.319 8.9703805,17.176263 L 8.9400067,16.91673 9.1816216,16.736348 c 0.1329025,-0.09922 0.2475511,-0.173338 0.2547537,-0.164721 0.00693,0.0089 0.048677,0.270218 0.092309,0.581336 0.5698097,4.069263 2.6787877,8.599436 5.6046317,12.038765 0.885558,1.040979 2.40025,2.470614 3.32101,3.134533 0.136118,0.09815 0.247482,0.194956 0.247482,0.215129 0,0.03077 -0.512159,0.285256 -0.574074,0.285256 -0.01108,0 -0.220571,-0.159962 -0.4655,-0.355482 z"
         style="fill:url(#linearGradient55);stroke-width:0.989373"
         id="path1-17-6" /></g></g><style
     type="text/css"
     id="style1">
	.st0{fill:#00294B;}
	.st1{fill:#FFFFFF;}
</style><style
     type="text/css"
     id="style1-0">
	.st0{fill:#62003C;}
</style></svg>
